<svg version="1.1" id="Layer_1" xmlns="http://www.w3.org/2000/svg" xmlns:xlink="http://www.w3.org/1999/xlink" x="0px" y="0px"
	 width="100%" viewBox="0 0 1024 768" enable-background="new 0 0 1024 768" xml:space="preserve">
<path fill="#000000" opacity="1.000000" stroke="none" 
	d="
M435.925842,618.089478 
	C423.190765,606.341675 411.099915,594.382263 398.154327,583.433594 
	C387.022614,574.018921 377.347778,563.311829 367.718964,552.528381 
	C359.971558,543.851929 352.350861,534.989624 345.487762,525.614075 
	C336.288940,513.047546 339.676727,497.756042 351.628998,489.400055 
	C367.928467,478.004852 380.891693,463.881958 391.920715,447.664673 
	C395.452484,442.471527 399.706512,437.983459 405.245911,435.096924 
	C420.452759,427.172791 430.882050,414.183075 441.361572,401.306122 
	C445.391693,396.354034 450.181335,392.161316 455.817078,390.130066 
	C466.677856,386.215546 470.792511,377.170654 475.337189,368.080048 
	C480.251648,358.249847 477.358551,350.084900 470.254242,342.705292 
	C465.083344,337.334015 459.658508,332.175171 454.851105,326.494904 
	C449.925812,320.675323 445.655334,314.304962 441.022400,308.233551 
	C436.325867,302.078735 430.672821,297.204102 423.739685,293.446808 
	C415.436127,288.946808 409.680786,281.389862 403.573425,274.324280 
	C394.556793,263.893036 385.737732,253.360565 375.191803,244.236481 
	C363.939758,234.501495 351.456238,225.889221 342.911316,213.273758 
	C342.165131,212.172058 341.277710,211.167038 340.504578,210.082413 
	C333.332611,200.021210 334.141876,196.980072 342.275787,187.628433 
	C351.583038,176.927856 364.185242,170.384232 374.145172,160.585052 
	C379.607056,155.211349 385.217926,149.993713 390.394958,144.335571 
	C391.293335,143.353699 392.206390,142.375275 393.196167,141.488449 
	C404.775696,131.113449 410.444183,131.118057 422.029785,141.468079 
	C425.487732,144.557220 429.386749,147.161407 431.881470,151.268539 
	C433.862366,154.529694 433.719635,157.155777 430.474091,159.445557 
	C416.593048,169.238800 406.247009,182.678970 394.464447,194.622528 
	C387.700714,201.478653 387.903839,205.095581 392.856781,213.233337 
	C397.514008,220.885254 402.959045,226.878006 412.522980,228.551041 
	C419.000763,229.684204 423.718170,234.546448 427.107819,240.011902 
	C432.513611,248.728210 438.214172,257.005646 447.404205,262.225098 
	C450.296051,263.867523 451.708832,266.821930 453.049316,269.693481 
	C456.682373,277.476013 461.791168,283.770508 469.792877,287.487671 
	C472.335602,288.668884 474.557129,290.530151 476.963531,292.019012 
	C480.684113,294.320953 482.322449,297.543060 482.450592,301.990173 
	C482.542969,305.195099 481.933655,309.590332 487.326996,309.566376 
	C493.509247,309.538910 495.458740,307.674225 495.624359,301.612030 
	C496.348114,275.119995 494.864807,248.654221 494.375214,222.180359 
	C494.120758,208.420853 493.140594,194.572952 490.615112,180.983734 
	C489.053772,172.582428 484.619812,165.323166 480.011353,158.168594 
	C474.789825,150.062271 468.965607,142.310028 464.933502,133.462265 
	C462.083954,127.209373 461.700897,120.965912 464.534943,114.632759 
	C467.180054,108.721741 470.596954,108.213020 475.161591,112.755318 
	C479.995300,117.565353 484.864075,122.367447 490.032898,126.805725 
	C495.061615,131.123642 497.216858,130.355087 500.227997,124.382126 
	C504.668121,115.574654 505.187775,106.195656 504.716309,96.617264 
	C504.460663,91.423691 505.465973,86.760208 509.848541,83.222687 
	C514.489258,79.476852 517.741821,80.257927 519.325317,86.137878 
	C521.443115,94.001587 523.238403,101.952362 525.155518,109.869789 
	C526.095093,113.750267 526.790833,117.723198 529.292236,121.013474 
	C531.005066,123.266464 529.759644,124.948074 527.872131,126.483154 
	C532.725403,127.761391 536.419067,126.455994 539.849487,123.575607 
	C543.414001,120.582626 546.637024,117.185913 550.643799,114.701805 
	C557.438049,110.489555 562.958008,113.227348 564.429443,121.142075 
	C565.687927,127.911613 563.779114,133.620087 560.078369,139.015549 
	C553.865540,148.073547 547.151123,156.829849 541.549988,166.249573 
	C538.022400,172.182098 534.082397,177.892288 531.309814,184.389648 
	C526.476074,195.716965 527.251587,207.156540 528.820007,218.726166 
	C531.921326,241.603271 531.849792,264.493652 529.613892,287.416931 
	C529.189636,291.766418 529.008667,295.996887 531.049683,300.105133 
	C533.072876,304.177521 534.245850,304.483429 537.693787,301.689941 
	C545.217590,295.594238 551.310303,288.056580 558.271667,281.386536 
	C566.453857,273.546844 574.906128,266.043060 583.615723,258.830536 
	C599.800110,245.427963 615.038147,231.095490 628.436340,214.858536 
	C630.654785,212.170013 633.213318,209.755798 635.680847,207.280762 
	C638.188660,204.765259 639.203186,202.290726 636.812439,198.960693 
	C629.793579,189.184143 621.419556,180.615921 613.125916,171.975266 
	C609.550171,168.249969 605.987305,164.460114 602.029480,161.167358 
	C597.385864,157.304001 596.177917,152.582504 596.893616,146.915588 
	C597.654480,140.891235 597.379944,134.737015 604.004028,131.041016 
	C610.801270,127.248405 619.981140,127.838852 625.777222,133.093552 
	C631.635193,138.404358 636.104370,144.862427 640.803467,151.089340 
	C650.033630,163.320602 662.816711,171.894791 673.036865,183.091797 
	C677.414551,187.887909 682.114014,192.351715 685.367615,198.089310 
	C689.248962,204.934021 689.372620,206.220200 683.302856,211.077728 
	C672.383545,219.816299 662.159790,229.346893 652.107239,238.999069 
	C641.681519,249.009506 632.560974,260.376434 622.169800,270.426544 
	C612.835510,279.454437 603.357117,288.271362 595.402649,298.583313 
	C594.897705,299.237915 594.041748,299.683685 593.702576,300.395111 
	C588.366516,311.587616 577.736511,317.376984 569.076172,325.284698 
	C561.569275,332.139130 554.278198,338.920441 545.543701,344.294342 
	C539.185669,348.206055 539.386719,356.200287 546.046631,361.982666 
	C557.213196,371.677979 566.193909,383.690308 578.547668,392.123779 
	C581.658875,394.247681 584.044495,397.383942 586.350159,400.496735 
	C595.372375,412.677094 605.201050,423.887787 617.781616,432.869904 
	C627.186951,439.585052 634.575073,448.936890 642.317444,457.627899 
	C644.995239,460.633789 647.735229,463.517792 650.939819,465.900635 
	C666.194397,477.243500 677.884644,491.941589 689.582458,506.649719 
	C692.105469,509.821960 691.507202,513.040833 689.589661,515.928223 
	C682.106934,527.195862 674.499512,538.361755 661.397461,544.083679 
	C656.252747,546.330444 652.475525,550.576233 648.747742,554.522827 
	C634.463989,569.644958 620.652527,585.214355 606.314880,600.283813 
	C600.720520,606.163757 594.741455,611.835999 587.648193,616.012451 
	C582.057617,619.304138 577.612000,623.609192 574.341919,629.226074 
	C571.173767,634.667786 565.983337,638.184692 561.489136,642.378357 
	C555.402710,648.057617 550.217773,654.994995 543.405334,659.528015 
	C535.515442,664.778015 530.503113,670.995911 527.323914,679.908020 
	C523.746033,689.937683 516.257874,691.861633 506.317932,687.649475 
	C496.644257,683.550110 488.951538,677.571350 483.402252,668.492004 
	C480.659241,664.003967 476.805634,660.127930 473.123657,656.292664 
	C460.896362,643.556274 448.518982,630.964050 435.925842,618.089478 
M454.438141,434.960419 
	C452.067139,437.027100 449.310211,438.574554 447.203400,441.027679 
	C438.021484,451.719116 429.063171,462.489136 417.533173,471.049713 
	C405.127014,480.260834 395.338593,492.080322 389.405518,506.677795 
	C388.696320,508.422729 388.390106,509.937469 389.275787,511.878021 
	C392.636536,519.241699 397.068451,525.745728 402.984528,531.325256 
	C409.772888,537.727539 416.112518,544.568542 421.931732,551.887573 
	C424.731720,555.409180 428.030243,558.435608 431.586395,561.243225 
	C440.307892,568.129089 448.672363,575.412354 456.444519,583.401794 
	C466.548798,593.788574 479.517761,600.102478 491.815186,607.323608 
	C494.119873,608.676941 496.639526,608.825500 496.656281,605.099304 
	C496.689941,597.613037 497.771118,589.967896 496.136871,582.669006 
	C491.983551,564.119202 489.919373,545.850342 495.341797,527.018799 
	C497.786499,518.528748 498.296692,509.098938 495.412079,500.350128 
	C491.204681,487.589417 490.854706,475.003082 494.886200,462.197998 
	C496.413818,457.345917 496.324432,452.223541 495.201477,447.363953 
	C492.266785,434.664307 490.231689,421.929810 491.349182,408.839417 
	C491.501587,407.053864 491.398315,405.165100 489.093781,403.600037 
	C478.553741,414.755127 468.523285,426.609497 454.438141,434.960419 
M582.551880,452.980957 
	C576.563843,447.704010 569.235291,443.976440 564.164795,437.675568 
	C555.808167,427.291199 546.680481,417.663940 536.834412,408.701538 
	C533.772156,405.914124 531.300354,406.592896 530.600220,410.763855 
	C530.055420,414.009613 529.646240,417.554535 530.375671,420.687347 
	C532.832153,431.236938 531.459656,441.509216 529.043701,451.766022 
	C527.902710,456.610260 527.913330,461.425049 529.596924,466.022705 
	C531.073792,470.055908 531.325745,474.116302 531.326111,478.290497 
	C531.327332,491.949310 530.879150,505.631012 531.530945,519.259521 
	C532.027832,529.648499 531.702087,539.788208 529.606079,549.993958 
	C528.409546,555.820129 528.161133,561.917969 530.001892,567.793335 
	C534.303894,581.524109 536.304688,595.321289 531.607788,609.401367 
	C531.319336,610.266235 530.987488,611.394653 532.293457,612.074463 
	C534.372925,611.712158 535.513062,609.915833 536.999268,608.677185 
	C543.378113,603.361084 548.910828,596.982300 556.250793,592.878479 
	C568.124573,586.239807 576.234924,575.875305 583.181885,564.729797 
	C586.461914,559.467407 590.157104,555.007141 595.061279,551.546326 
	C599.261597,548.582275 603.767944,546.021118 608.279968,543.538086 
	C612.819763,541.039734 617.757385,538.645691 620.736023,534.584290 
	C627.956421,524.738953 631.351990,513.237244 632.783997,501.166382 
	C633.112305,498.398773 632.259216,496.001862 629.382202,495.260803 
	C623.506897,493.747406 619.537598,489.635071 615.986328,485.281433 
	C606.260559,473.358154 595.474426,462.591248 582.551880,452.980957 
z"/>
</svg>