<?xml version="1.0" standalone="no"?>
<!DOCTYPE svg PUBLIC "-//W3C//DTD SVG 20010904//EN"
 "http://www.w3.org/TR/2001/REC-SVG-20010904/DTD/svg10.dtd">
<svg version="1.0" xmlns="http://www.w3.org/2000/svg"
 width="400.000000pt" height="400.000000pt" viewBox="0 0 400.000000 400.000000"
 preserveAspectRatio="xMidYMid meet">
<g transform="translate(0.000000,400.000000) scale(0.100000,-0.100000)"
fill="#000000" stroke="none">
<path d="M1927 3881 c-4 -17 -3 -21 5 -13 5 5 8 16 6 23 -3 8 -7 3 -11 -10z"/>
<path d="M1973 3864 c-31 -24 -32 -26 -30 -107 1 -71 -3 -89 -26 -134 -15 -29
-31 -53 -36 -53 -5 0 -44 34 -86 77 -83 82 -84 83 -107 10 -13 -45 0 -80 83
-209 78 -122 92 -172 103 -378 11 -193 17 -588 10 -593 -5 -3 -27 -7 -49 -8
l-39 -4 2 45 2 45 -68 44 c-45 28 -78 58 -97 88 -29 47 -60 81 -93 105 -10 7
-36 38 -57 68 -57 83 -72 97 -123 111 -54 15 -99 57 -125 115 -17 38 -18 44
-3 72 9 17 27 39 40 50 14 10 47 46 74 78 44 52 75 79 146 128 17 11 14 16
-35 65 -64 63 -103 85 -135 77 -13 -4 -53 -37 -88 -74 -36 -37 -111 -105 -168
-152 -57 -46 -120 -104 -141 -127 l-39 -42 41 -59 c22 -33 80 -95 128 -139
119 -108 171 -159 225 -223 69 -84 147 -159 182 -177 40 -21 73 -55 126 -133
24 -35 64 -84 90 -109 58 -56 100 -117 100 -145 0 -26 -28 -100 -54 -143 -12
-19 -43 -45 -76 -62 -54 -29 -103 -75 -181 -172 -20 -25 -70 -67 -110 -94 -57
-39 -90 -72 -148 -149 -41 -54 -102 -120 -135 -147 -144 -117 -170 -164 -130
-242 32 -62 226 -286 332 -383 294 -271 433 -413 556 -567 42 -52 93 -83 154
-93 36 -6 44 -3 65 20 14 15 28 42 31 61 4 22 18 42 37 57 58 44 224 203 254
244 17 23 57 62 90 86 52 39 164 152 340 346 27 29 75 69 106 88 41 24 76 59
119 115 l61 79 -70 83 c-38 45 -93 105 -122 132 -29 28 -103 100 -163 160 -61
61 -134 129 -163 153 -29 23 -73 70 -100 105 -26 34 -72 85 -102 112 -100 90
-193 189 -206 219 -19 43 -8 64 51 97 29 17 70 49 91 72 21 23 57 55 80 70 22
16 58 53 78 84 20 30 96 116 168 191 73 75 164 169 202 209 39 40 107 103 152
140 l82 67 -24 41 c-14 22 -80 96 -147 165 -68 69 -137 143 -153 165 -55 75
-95 105 -140 105 -60 0 -93 -37 -96 -109 -3 -52 -2 -54 47 -100 48 -46 163
-171 203 -222 l21 -27 -158 -159 c-86 -88 -184 -183 -217 -213 -33 -29 -113
-104 -177 -168 l-117 -115 -11 29 c-10 24 -18 276 -22 645 0 70 45 168 136
297 80 112 100 155 92 197 -6 31 -21 45 -51 45 -7 0 -37 -20 -66 -44 -62 -50
-87 -60 -129 -51 -43 9 -38 29 5 22 19 -3 35 -4 35 -2 0 2 -8 19 -19 37 -10
18 -29 76 -41 128 -12 52 -25 98 -29 102 -3 4 -21 -4 -38 -18z m16 -64 c1 37
3 42 12 27 6 -11 9 -32 7 -47 -2 -16 -1 -27 4 -24 4 3 8 -4 8 -14 0 -11 7 -36
15 -56 8 -20 11 -36 7 -36 -5 0 -14 -12 -21 -26 -7 -17 -17 -24 -27 -20 -9 3
-12 2 -9 -4 4 -6 14 -9 23 -8 9 2 16 -2 15 -9 -2 -8 4 -10 14 -6 12 5 14 3 8
-7 -5 -9 -4 -11 4 -6 6 4 19 2 28 -6 9 -7 14 -8 10 -2 -4 7 16 17 56 27 34 8
54 16 43 16 -16 1 -16 4 7 21 14 11 30 20 36 20 6 0 11 6 11 13 0 8 4 7 10 -3
9 -13 10 -13 10 0 1 13 2 13 9 0 5 -8 8 -24 7 -35 -3 -28 -48 -115 -57 -110
-4 3 -9 -5 -13 -18 -3 -12 -22 -42 -42 -65 -19 -23 -37 -48 -38 -56 -1 -7 -10
-26 -21 -42 -11 -16 -18 -35 -17 -41 2 -7 -1 -13 -6 -13 -15 0 -40 -104 -39
-167 0 -34 4 -60 8 -57 4 2 9 -121 11 -274 3 -294 6 -312 50 -312 10 0 21 7
24 15 4 8 10 15 14 15 4 0 44 37 89 81 45 45 81 78 81 73 0 -5 11 8 25 28 14
20 35 38 47 40 13 2 23 8 23 13 0 6 31 39 70 75 38 36 88 83 112 106 23 22 44
36 47 30 2 -6 5 -3 5 7 1 11 33 54 73 98 90 100 95 126 32 172 -39 29 -62 59
-31 41 6 -4 3 2 -7 14 -11 12 -23 22 -28 22 -11 0 -38 25 -38 35 0 3 5 3 10 0
6 -3 10 1 10 10 0 12 -4 13 -17 6 -13 -6 -22 -4 -33 7 -13 14 -12 15 3 9 9 -3
18 -3 21 1 3 4 -4 8 -15 9 -22 2 -70 33 -51 33 7 0 10 5 7 11 -4 6 -13 8 -19
6 -19 -8 -38 31 -31 64 4 16 11 29 16 29 5 0 9 5 9 11 0 5 -5 7 -11 3 -8 -4
-8 0 0 15 7 11 17 21 24 21 8 0 6 -4 -3 -10 -11 -7 -6 -8 17 -4 33 7 68 -10
57 -27 -3 -5 2 -6 10 -3 14 5 14 8 1 21 -28 28 -15 27 15 -2 16 -15 36 -43 45
-61 9 -19 18 -34 21 -34 3 0 2 5 -2 12 -4 7 -3 8 4 4 7 -4 12 -13 12 -21 0 -7
16 -27 35 -44 19 -17 35 -35 35 -41 0 -5 4 -10 9 -10 14 0 131 -115 131 -129
0 -7 5 -9 10 -6 6 3 10 -1 10 -10 0 -8 6 -18 14 -21 23 -9 29 -54 10 -75 -9
-11 -23 -19 -31 -19 -8 0 -12 -4 -9 -9 3 -5 -7 -14 -23 -21 -16 -6 -38 -22
-48 -33 -18 -22 -18 -22 2 -6 11 9 27 19 35 23 8 4 2 -3 -15 -16 -16 -12 -58
-51 -93 -86 -35 -35 -66 -61 -69 -58 -8 8 -33 -13 -33 -27 0 -6 6 -3 13 8 9
12 16 14 21 7 3 -6 -10 -23 -31 -39 -45 -33 -69 -55 -65 -60 1 -2 0 -3 -3 -3
-10 0 -42 -35 -38 -42 4 -8 -12 -12 -30 -9 -5 1 -6 -2 -3 -7 3 -5 -12 -27 -32
-49 -82 -89 -102 -113 -102 -122 0 -5 -5 -13 -12 -17 -8 -5 -9 -2 -4 12 4 10
3 15 -1 10 -4 -4 -8 -18 -8 -29 0 -12 -5 -21 -12 -20 -7 2 -10 -4 -7 -12 4 -8
1 -15 -5 -15 -7 0 -21 -9 -33 -20 -12 -10 -25 -17 -30 -14 -4 3 -8 0 -8 -5 0
-6 -8 -11 -17 -11 -9 0 -14 -3 -10 -6 3 -3 -5 -17 -19 -31 -13 -13 -24 -28
-24 -32 0 -5 -11 -12 -25 -15 -14 -4 -25 -10 -25 -15 0 -5 -10 -7 -22 -5 -13
2 -17 2 -11 -2 9 -4 2 -16 -20 -37 -22 -23 -32 -42 -34 -66 -1 -26 1 -31 9
-20 7 11 9 9 5 -8 -3 -13 -2 -23 1 -23 4 0 13 -14 21 -31 7 -16 16 -28 19 -24
3 3 0 11 -6 17 -7 7 -12 16 -12 20 0 4 9 -1 20 -12 12 -12 18 -26 14 -32 -4
-6 -3 -8 3 -5 6 4 21 -5 33 -18 13 -14 20 -25 16 -25 -5 0 -3 -7 4 -15 7 -8
16 -12 21 -9 5 3 9 0 9 -7 0 -7 3 -10 6 -7 9 9 46 -31 39 -42 -3 -5 0 -7 8 -4
8 3 18 -5 25 -18 6 -13 11 -17 11 -9 1 8 9 3 22 -13 11 -14 17 -30 14 -36 -3
-5 0 -10 7 -10 7 0 22 -12 32 -26 11 -14 30 -37 42 -51 13 -15 20 -31 17 -36
-3 -6 -1 -7 5 -3 6 3 16 -3 22 -14 6 -11 17 -20 26 -20 9 0 14 -7 12 -17 -2
-12 3 -18 17 -18 33 0 68 -30 61 -53 -4 -11 -2 -23 3 -27 7 -4 8 1 4 11 -4 12
-2 15 8 12 8 -3 13 -11 11 -17 -1 -7 1 -10 6 -7 13 8 75 -61 66 -75 -4 -7 -3
-9 4 -5 6 3 20 -6 31 -20 12 -15 21 -23 21 -19 0 5 9 0 20 -10 10 -9 18 -22
17 -28 -1 -6 7 -13 18 -15 27 -6 56 -32 48 -45 -3 -5 -1 -7 4 -4 6 4 18 -4 26
-17 9 -13 22 -29 30 -37 7 -8 14 -17 15 -21 1 -5 5 -9 10 -10 4 -1 16 -13 27
-27 10 -14 22 -28 25 -31 3 -3 6 -16 8 -30 1 -17 -1 -21 -7 -12 -6 11 -10 10
-16 -5 -5 -10 -9 -22 -9 -26 -1 -5 -14 -20 -31 -33 -19 -16 -23 -22 -10 -17
17 6 18 5 5 -9 -8 -8 -21 -13 -28 -11 -7 3 -12 0 -10 -6 2 -6 -10 -19 -27 -29
-16 -9 -35 -21 -41 -27 -31 -27 -154 -147 -156 -153 -6 -15 -68 -76 -68 -67
-1 6 -6 0 -13 -11 -18 -32 -75 -94 -86 -94 -6 0 -16 -12 -23 -27 -9 -18 -20
-27 -32 -25 -11 2 -20 -4 -23 -17 -3 -11 -11 -17 -18 -15 -8 3 -12 -2 -12 -12
1 -11 -6 -20 -18 -22 -20 -5 -55 -38 -55 -54 0 -5 -4 -7 -9 -4 -5 3 -12 -5
-15 -19 -4 -14 -11 -25 -17 -25 -6 0 -7 -4 -4 -10 4 -6 -1 -7 -11 -3 -11 4
-15 2 -11 -4 3 -5 -5 -20 -20 -33 -21 -18 -27 -19 -35 -9 -7 10 -8 8 -3 -8 3
-12 1 -25 -6 -29 -8 -5 -9 -3 -4 6 5 8 -6 4 -23 -8 -36 -26 -48 -42 -32 -42 6
0 8 -5 5 -10 -4 -6 -12 -10 -18 -9 -7 1 -19 1 -27 0 -13 -1 -13 -2 0 -11 9 -6
10 -10 3 -10 -26 0 -99 -91 -88 -110 3 -5 -3 -15 -13 -22 -11 -7 -20 -17 -20
-23 0 -5 -6 -11 -13 -14 -6 -2 -9 1 -6 6 4 6 -5 8 -21 6 -21 -4 -24 -2 -12 6
12 9 9 11 -15 12 -16 1 -34 1 -38 0 -5 -1 -6 7 -2 18 3 11 1 22 -4 26 -7 3 -8
0 -5 -9 4 -9 1 -16 -6 -16 -6 0 -14 9 -17 20 -3 11 -10 20 -15 20 -14 0 -40
28 -42 48 -2 9 -14 23 -27 29 -13 7 -20 13 -16 13 4 0 -9 16 -30 37 -21 20
-31 32 -23 27 9 -5 4 2 -11 16 -14 14 -29 33 -32 42 -4 11 -12 15 -22 12 -18
-7 -21 12 -2 20 6 3 1 3 -13 0 -14 -4 -22 -3 -19 0 4 4 -21 34 -55 68 -33 33
-60 64 -59 69 2 4 -5 5 -14 2 -12 -5 -15 -2 -10 10 4 12 2 14 -10 10 -10 -4
-14 -2 -10 4 6 10 -19 28 -34 25 -3 0 -11 9 -19 21 -12 20 -12 21 3 8 25 -20
21 -7 -5 15 -12 10 -18 13 -14 7 14 -25 -5 -12 -40 27 -19 21 -45 42 -56 46
-15 4 -17 8 -8 14 9 6 7 10 -7 14 -14 5 -19 14 -18 34 1 20 -3 28 -16 28 -9 0
-15 -6 -12 -13 3 -7 9 -13 15 -13 5 0 7 -4 3 -10 -3 -5 -14 -2 -25 7 -10 9
-17 20 -14 25 3 4 1 8 -4 8 -5 0 -36 30 -68 67 -33 37 -52 63 -44 58 8 -5 -7
12 -33 38 -29 28 -46 51 -41 58 4 7 3 9 -3 6 -12 -7 -46 30 -38 43 3 5 -3 15
-12 22 -10 7 -19 25 -21 39 -4 32 36 112 51 102 5 -3 7 -1 4 4 -4 6 1 17 10
24 14 12 16 12 9 -1 -4 -8 1 -5 12 7 11 12 22 19 26 16 3 -4 6 -1 6 5 0 7 5
11 12 10 7 -2 13 2 13 7 1 6 18 28 38 49 20 22 37 44 37 49 0 4 4 6 9 3 5 -3
12 2 16 12 3 9 5 17 4 17 -2 0 9 13 24 29 15 16 27 33 27 38 0 5 4 7 8 4 4 -2
14 9 21 25 7 17 24 34 37 40 14 5 27 16 30 24 4 8 15 15 25 15 11 0 22 7 25
15 3 8 14 17 24 20 11 3 33 25 50 47 16 23 30 38 30 33 0 -5 -8 -18 -17 -29
-17 -20 -17 -20 1 -6 14 11 39 56 37 67 -2 11 73 76 109 93 60 31 100 73 134
145 15 33 31 67 35 75 9 18 -9 84 -27 102 -6 6 -12 18 -12 26 0 7 -4 11 -8 8
-5 -3 -35 22 -67 55 -32 32 -55 59 -52 59 3 0 13 -7 21 -16 9 -8 16 -11 16 -6
0 6 -16 19 -35 31 -19 11 -35 26 -35 33 1 8 7 5 15 -6 16 -21 19 -18 9 8 -3 9
-12 16 -20 16 -8 0 -14 8 -15 18 0 11 -2 13 -6 4 -3 -9 -12 -3 -25 18 -10 18
-17 35 -14 38 3 2 8 -3 12 -12 3 -9 10 -16 15 -16 5 0 4 9 -3 20 -8 12 -19 18
-30 14 -11 -3 -18 0 -18 7 0 7 -3 10 -6 7 -3 -3 -16 4 -29 16 -37 34 -55 47
-55 41 0 -3 -16 9 -35 26 -29 27 -33 35 -22 47 10 13 9 15 -5 9 -10 -3 -18 -2
-18 3 0 6 5 10 12 10 6 0 8 3 5 6 -4 4 -14 1 -24 -7 -11 -9 -14 -10 -9 -1 4 7
1 12 -8 12 -9 0 -16 4 -16 9 0 4 -12 20 -26 34 -15 15 -23 31 -18 38 4 7 3 9
-3 6 -6 -4 -31 15 -56 41 -25 26 -59 58 -75 72 -17 13 -28 29 -25 34 4 5 2 6
-3 3 -6 -3 -16 -1 -24 4 -12 8 -12 12 -2 16 13 5 7 23 -9 23 -6 0 -7 -4 -4
-10 3 -5 2 -10 -4 -10 -6 0 -17 14 -26 30 -9 17 -22 30 -30 30 -9 0 -21 12
-28 28 -14 32 -32 53 -41 47 -3 -3 -4 -2 -1 2 3 3 0 12 -7 20 -14 17 8 63 31
63 14 0 14 2 1 10 -8 5 -10 10 -4 10 6 0 28 17 50 38 21 20 34 30 29 22 -5 -8
7 0 26 18 19 19 47 40 62 48 16 9 25 20 21 26 -5 8 -2 9 9 5 12 -4 17 -1 17
11 1 15 3 15 16 -3 16 -20 16 -20 10 1 -5 17 2 29 34 54 22 17 40 37 40 44 0
7 8 20 18 28 18 16 52 20 52 6 0 -4 8 -8 18 -8 21 -1 52 -23 52 -39 0 -6 6
-11 14 -11 7 0 20 -8 27 -17 10 -11 10 -14 2 -9 -8 4 -13 2 -13 -6 0 -8 -10
-14 -21 -15 -12 -1 -26 -6 -32 -12 -7 -7 -2 -8 14 -4 22 6 23 6 7 -10 -9 -9
-23 -17 -32 -17 -8 0 -18 -5 -22 -12 -5 -7 -2 -9 7 -3 8 4 -3 -9 -24 -29 -21
-19 -38 -39 -38 -43 -1 -5 -5 -7 -10 -6 -5 2 -8 -3 -6 -10 1 -7 -7 -11 -23 -9
-19 2 -21 1 -11 -7 12 -8 12 -12 2 -25 -8 -9 -20 -16 -27 -16 -8 0 -14 -7 -14
-16 0 -8 -7 -22 -15 -30 -18 -18 -21 -79 -3 -68 8 5 9 0 5 -15 -3 -13 -3 -20
0 -17 4 3 22 -17 40 -45 19 -27 46 -55 61 -60 15 -6 40 -17 55 -25 15 -7 25
-9 22 -4 -3 5 0 7 7 5 12 -5 56 -65 67 -89 2 -5 18 -24 36 -42 18 -18 30 -35
27 -38 -3 -3 2 -6 11 -6 9 0 17 -4 17 -10 0 -5 -7 -6 -17 -3 -11 4 -14 3 -9
-6 5 -7 14 -10 22 -7 18 7 46 -3 39 -14 -3 -5 -1 -11 5 -15 5 -3 10 -15 10
-25 0 -10 5 -22 12 -26 7 -5 8 -3 3 6 -6 9 -4 11 4 6 7 -5 10 -14 7 -22 -3 -8
0 -13 7 -11 7 1 12 -5 12 -13 1 -29 15 -40 42 -34 17 5 24 3 20 -4 -4 -5 6
-15 23 -21 22 -7 30 -16 30 -33 0 -19 2 -20 10 -8 8 12 10 11 10 -7 0 -12 -5
-23 -12 -25 -22 -8 32 -50 58 -45 13 2 21 0 18 -4 -10 -18 26 -8 50 12 l24 21
-5 186 c-2 103 -6 243 -7 312 -2 69 -7 160 -11 203 -7 78 -47 222 -57 211 -3
-3 -12 12 -18 33 -7 21 -19 42 -26 46 -8 4 -14 14 -14 22 0 8 -6 18 -12 22 -7
4 -24 28 -37 52 -13 24 -19 41 -12 37 8 -6 8 -1 0 17 -8 18 -8 30 0 43 6 11
11 14 11 6 0 -7 5 -10 10 -7 6 4 10 -6 10 -22 0 -22 5 -29 20 -30 18 -2 19 0
5 13 -33 33 -12 24 28 -12 24 -22 42 -41 41 -44 -5 -11 52 -8 65 3 12 10 13 9
6 -2 -5 -10 -4 -12 3 -7 7 4 12 16 12 26 0 10 4 21 9 24 4 3 11 19 15 36 3 17
9 29 13 27 5 -3 7 36 6 86 -1 71 1 82 6 47 l8 -45 2 45z m634 -237 c-7 -2 -19
-2 -25 0 -7 3 -2 5 12 5 14 0 19 -2 13 -5z m-1353 -87 c0 -2 -8 -10 -17 -17
-16 -13 -17 -12 -4 4 13 16 21 21 21 13z m1510 -291 c7 -9 8 -15 2 -15 -5 0
-12 7 -16 15 -3 8 -4 15 -2 15 2 0 9 -7 16 -15z m-1100 -585 c0 -5 -4 -10 -9
-10 -6 0 -13 5 -16 10 -3 6 1 10 9 10 9 0 16 -4 16 -10z m590 -570 c0 -5 -2
-10 -4 -10 -3 0 -8 5 -11 10 -3 6 -1 10 4 10 6 0 11 -4 11 -10z"/>
<path d="M2247 3599 c7 -7 15 -10 18 -7 3 3 -2 9 -12 12 -14 6 -15 5 -6 -5z"/>
<path d="M2108 3553 c7 -3 16 -2 19 1 4 3 -2 6 -13 5 -11 0 -14 -3 -6 -6z"/>
<path d="M2184 3512 c4 -7 2 -20 -5 -28 -6 -8 -9 -17 -6 -20 3 -3 11 4 17 16
9 17 9 25 -1 34 -9 8 -10 8 -5 -2z"/>
<path d="M1827 3419 c4 -13 8 -18 11 -10 2 7 -1 18 -6 23 -8 8 -9 4 -5 -13z"/>
<path d="M2092 3348 c-7 -7 -12 -16 -12 -21 0 -5 7 -1 16 8 9 9 14 18 12 20
-2 3 -10 -1 -16 -7z"/>
<path d="M1100 3314 c-12 -13 -11 -17 1 -26 10 -7 8 -8 -10 -4 -17 3 -21 2
-13 -6 6 -6 18 -8 27 -4 14 5 15 9 6 20 -9 11 -9 15 1 19 7 2 10 7 7 11 -3 4
-12 -1 -19 -10z"/>
<path d="M1225 3230 c-3 -5 -2 -10 4 -10 5 0 13 5 16 10 3 6 2 10 -4 10 -5 0
-13 -4 -16 -10z"/>
<path d="M2975 3132 c-14 -31 -13 -41 2 -35 11 4 12 8 3 13 -9 6 -8 10 5 17
10 6 13 13 7 17 -5 3 -13 -2 -17 -12z"/>
<path d="M2770 3070 c-8 -5 -12 -12 -9 -15 4 -3 12 1 19 10 14 17 11 19 -10 5z"/>
<path d="M2691 2987 c-13 -21 -12 -21 5 -5 10 10 16 20 13 22 -3 3 -11 -5 -18
-17z"/>
<path d="M1152 2924 c10 -10 20 -15 24 -12 3 4 -5 12 -18 18 -22 12 -22 12 -6
-6z"/>
<path d="M2614 2905 c-13 -11 -14 -14 -4 -13 9 2 14 -3 12 -12 -2 -8 0 -12 4
-7 6 6 14 47 9 47 -1 0 -10 -7 -21 -15z"/>
<path d="M2530 2830 c0 -5 5 -10 10 -10 6 0 10 5 10 10 0 6 -4 10 -10 10 -5 0
-10 -4 -10 -10z"/>
<path d="M2466 2753 c-6 -14 -5 -15 5 -6 7 7 10 15 7 18 -3 3 -9 -2 -12 -12z"/>
<path d="M2360 2675 c-7 -8 -8 -15 -2 -15 5 0 15 7 22 15 7 8 8 15 2 15 -5 0
-15 -7 -22 -15z"/>
<path d="M2486 2621 c-4 -5 -2 -12 3 -15 5 -4 12 -2 15 3 4 5 2 12 -3 15 -5 4
-12 2 -15 -3z"/>
<path d="M1827 1922 c-15 -10 -24 -22 -20 -27 5 -4 0 -5 -9 -2 -12 4 -15 2
-12 -8 4 -8 -8 -23 -30 -37 -20 -13 -34 -28 -31 -35 4 -13 -46 -42 -74 -44
-12 0 -11 -3 4 -9 11 -5 16 -9 10 -10 -35 -5 -47 -12 -84 -49 -23 -23 -47 -39
-53 -35 -7 4 -8 3 -4 -5 6 -9 12 -9 24 1 10 6 2 -3 -15 -21 -18 -18 -33 -37
-33 -42 0 -5 -6 -6 -14 -3 -9 3 -13 -1 -13 -13 1 -10 -4 -17 -10 -15 -7 1 -13
-4 -13 -11 0 -14 -38 -40 -62 -42 -10 -1 -21 -5 -25 -10 -5 -4 3 -4 16 0 17 5
1 -15 -52 -68 -43 -42 -84 -91 -92 -109 -8 -18 -14 -29 -15 -24 0 6 -7 1 -15
-10 -21 -27 -18 -81 5 -114 11 -16 17 -35 14 -44 -4 -11 2 -19 17 -25 25 -9
119 -107 119 -123 0 -5 5 -6 12 -2 8 5 9 2 5 -10 -5 -13 -3 -17 5 -13 7 2 22
-7 32 -20 l19 -25 -24 6 c-19 4 -18 3 4 -6 15 -7 27 -16 27 -21 0 -4 4 -6 10
-2 5 3 17 -6 26 -20 9 -14 22 -25 29 -25 6 0 20 -9 30 -20 22 -25 9 -26 -19
-2 -21 17 -21 17 -2 -6 11 -12 24 -21 31 -20 17 4 85 -53 78 -66 -3 -6 -3 -8
1 -4 11 9 56 -32 57 -51 0 -12 2 -12 6 -3 4 10 10 8 27 -7 12 -11 43 -32 70
-45 26 -13 41 -26 34 -28 -7 -3 -3 -7 10 -10 12 -4 20 -2 16 3 -3 5 2 6 11 3
13 -5 13 -9 3 -22 -11 -13 -10 -14 10 -3 12 6 26 10 31 7 5 -3 14 1 21 9 12
15 9 139 -5 210 -4 17 -7 62 -7 100 -1 64 -2 66 -8 25 l-7 -45 -3 40 c-2 37 0
96 3 120 1 6 6 13 11 16 5 4 11 46 13 93 6 98 -5 226 -17 207 -11 -19 -19 49
-9 77 5 13 9 35 9 48 0 14 4 23 8 20 12 -7 6 172 -6 186 -10 13 -21 178 -12
178 14 0 4 47 -13 63 -24 20 -17 20 -50 -1z m36 -80 c-4 -51 0 -115 12 -183
15 -96 15 -111 1 -180 -14 -71 -14 -82 3 -173 11 -53 17 -104 16 -114 -21
-103 -36 -239 -30 -270 31 -161 44 -322 28 -322 -5 0 -43 19 -86 43 -146 80
-523 442 -568 545 -11 24 -19 48 -19 54 0 18 68 122 107 163 21 22 61 58 88
80 52 41 89 78 132 133 14 17 55 55 92 84 65 50 211 196 211 211 0 4 4 7 9 7
5 0 7 -34 4 -78z m-618 -712 c3 -5 1 -10 -4 -10 -6 0 -11 5 -11 10 0 6 2 10 4
10 3 0 8 -4 11 -10z"/>
<path d="M1810 1791 c0 -5 -8 -12 -17 -14 -15 -4 -15 -5 -2 -6 9 0 22 6 29 14
9 10 9 15 1 15 -6 0 -11 -4 -11 -9z"/>
<path d="M1732 1714 c-7 -8 -8 -14 -3 -14 10 0 25 19 20 25 -2 1 -10 -3 -17
-11z"/>
<path d="M1660 1690 c-9 -6 -10 -10 -3 -10 6 0 15 5 18 10 8 12 4 12 -15 0z"/>
<path d="M1579 1613 c-13 -16 -12 -17 4 -4 16 13 21 21 13 21 -2 0 -10 -8 -17
-17z"/>
<path d="M1459 1483 c-13 -16 -12 -17 4 -4 9 7 17 15 17 17 0 8 -8 3 -21 -13z"/>
<path d="M1341 1377 c-13 -21 -12 -21 5 -5 10 10 16 20 13 22 -3 3 -11 -5 -18
-17z"/>
<path d="M1345 1109 c-6 -8 -4 -10 5 -4 10 6 12 4 6 -11 -6 -15 -5 -17 5 -6 9
9 10 15 2 23 -8 8 -13 7 -18 -2z"/>
<path d="M1567 869 c7 -7 15 -10 18 -7 3 3 -2 9 -12 12 -14 6 -15 5 -6 -5z"/>
<path d="M1608 863 c7 -3 16 -2 19 1 4 3 -2 6 -13 5 -11 0 -14 -3 -6 -6z"/>
<path d="M2091 1908 c-26 -27 -31 -58 -30 -183 0 -55 0 -127 -1 -160 0 -33 2
-154 6 -268 4 -140 2 -235 -6 -290 -15 -101 -15 -91 3 -157 34 -124 30 -190
-14 -273 -10 -17 -9 -19 5 -14 10 4 15 3 12 -2 -10 -15 22 -33 44 -26 12 4 19
9 16 13 -4 3 6 14 21 24 16 10 25 18 21 18 -4 0 6 13 23 30 18 16 36 27 42 23
5 -3 7 -1 4 4 -9 15 19 36 35 27 7 -4 10 -4 6 1 -9 9 9 35 24 35 5 0 6 -6 2
-12 -4 -8 -3 -10 2 -5 5 5 9 14 9 20 0 7 10 13 23 13 12 1 26 5 30 9 4 5 -1 5
-11 2 -16 -6 -15 -3 5 22 13 17 27 30 32 30 5 1 1 -7 -8 -18 -15 -17 -15 -19
-1 -25 10 -3 14 -2 10 5 -4 5 -2 16 4 23 7 8 10 20 9 27 -2 8 3 13 11 11 8 -2
11 3 8 12 -7 19 9 31 17 14 3 -7 3 -3 1 8 -5 19 15 40 35 36 3 0 7 8 7 19 2
26 21 49 39 49 8 0 14 5 14 11 0 6 7 9 15 5 8 -3 14 0 12 7 -1 7 8 11 23 9 20
-2 22 -1 10 8 -12 9 -9 10 15 6 19 -4 25 -3 16 2 -9 7 -10 12 -2 16 6 4 11 5
11 2 0 -3 9 2 20 11 11 10 20 23 20 30 0 15 12 17 26 4 5 -6 10 0 11 16 1 20
-1 23 -9 12 -8 -11 -9 -10 -4 4 3 10 6 24 6 30 0 8 3 7 9 -2 6 -8 11 6 15 43
4 31 11 56 16 56 8 0 6 97 -2 105 -2 2 -19 11 -38 19 -19 8 -29 15 -22 16 7 0
10 5 7 10 -4 6 -10 8 -15 5 -5 -3 -14 4 -20 15 -6 11 -15 18 -20 15 -6 -4 -7
1 -3 11 4 11 3 15 -5 11 -6 -4 -20 6 -31 22 -16 21 -18 31 -9 34 7 2 3 2 -9 0
-22 -3 -24 0 -27 36 -1 8 -8 16 -16 18 -13 4 -13 3 0 -6 10 -7 11 -11 3 -11
-16 0 -53 36 -53 51 0 5 -5 7 -12 3 -8 -5 -9 -2 -5 9 3 10 2 17 -3 17 -6 0
-10 -5 -10 -11 0 -6 -29 19 -65 55 -36 36 -70 66 -76 66 -6 0 -7 5 -4 10 4 6
1 9 -7 8 -7 -2 -12 4 -10 12 2 8 0 12 -3 8 -8 -8 -45 34 -45 51 0 6 -3 10 -7
9 -5 -2 -19 5 -33 15 -13 9 -21 17 -16 17 4 0 -12 16 -36 36 -23 21 -42 41
-40 45 4 15 -6 10 -27 -13z m121 -125 c137 -142 142 -146 228 -216 41 -33 93
-81 115 -106 77 -88 135 -141 155 -141 25 0 25 -16 4 -106 -28 -124 -49 -149
-189 -233 -41 -24 -67 -49 -92 -90 -49 -76 -87 -119 -147 -164 -66 -50 -166
-137 -188 -162 -17 -20 -17 -20 -18 2 0 12 4 24 9 27 13 8 34 121 28 153 -2
15 -13 58 -23 94 -16 59 -16 75 -5 165 9 70 11 157 7 294 -4 107 -7 227 -6
265 0 39 0 117 0 175 0 100 5 150 15 150 2 0 50 -48 107 -107z m268 -877 c0
-2 -8 -10 -17 -17 -16 -13 -17 -12 -4 4 13 16 21 21 21 13z"/>
<path d="M2142 1740 c0 -14 2 -19 5 -12 2 6 2 18 0 25 -3 6 -5 1 -5 -13z"/>
<path d="M2404 1541 c0 -11 5 -17 13 -14 10 4 11 9 2 19 -15 18 -15 18 -15 -5z"/>
<path d="M2142 1460 c0 -14 2 -19 5 -12 2 6 2 18 0 25 -3 6 -5 1 -5 -13z"/>
<path d="M2480 1471 c0 -5 5 -13 10 -16 6 -3 10 -2 10 4 0 5 -4 13 -10 16 -5
3 -10 2 -10 -4z"/>
<path d="M2513 1455 c0 -8 4 -15 9 -15 4 0 8 4 8 9 0 6 -4 12 -8 15 -5 3 -9
-1 -9 -9z"/>
<path d="M2650 1300 c0 -5 5 -10 11 -10 5 0 7 5 4 10 -3 6 -8 10 -11 10 -2 0
-4 -4 -4 -10z"/>
<path d="M2675 1279 c-4 -6 -5 -12 -2 -15 2 -3 7 2 10 11 7 17 1 20 -8 4z"/>
<path d="M2350 839 c0 -5 5 -7 10 -4 6 3 10 8 10 11 0 2 -4 4 -10 4 -5 0 -10
-5 -10 -11z"/>
<path d="M2167 713 c-10 -10 -8 -23 4 -23 5 0 8 4 5 9 -4 5 0 12 6 14 7 3 8 6
2 6 -6 1 -14 -2 -17 -6z"/>
<path d="M1582 1884 c-7 -8 -8 -14 -3 -14 10 0 25 19 20 25 -2 1 -10 -3 -17
-11z"/>
<path d="M1580 1850 c-12 -7 -10 -9 7 -7 12 0 19 5 17 9 -6 10 -6 10 -24 -2z"/>
<path d="M1183 1451 c0 -11 5 -18 9 -15 4 3 5 11 1 19 -7 21 -12 19 -10 -4z"/>
<path d="M2987 1163 c-4 -3 -7 -11 -7 -17 0 -6 5 -5 12 2 6 6 9 14 7 17 -3 3
-9 2 -12 -2z"/>
<path d="M1902 990 c0 -14 2 -19 5 -12 2 6 2 18 0 25 -3 6 -5 1 -5 -13z"/>
<path d="M2805 999 c-11 -16 -1 -19 13 -3 7 8 8 14 3 14 -5 0 -13 -5 -16 -11z"/>
<path d="M1175 941 c-3 -5 -2 -12 3 -15 5 -3 9 1 9 9 0 17 -3 19 -12 6z"/>
<path d="M1428 873 c7 -3 16 -2 19 1 4 3 -2 6 -13 5 -11 0 -14 -3 -6 -6z"/>
<path d="M2656 855 c-9 -26 -7 -32 5 -12 6 10 9 21 6 23 -2 3 -7 -2 -11 -11z"/>
<path d="M2583 763 c0 -9 4 -10 14 -2 7 6 13 12 13 14 0 1 -6 2 -13 2 -8 0
-14 -6 -14 -14z"/>
<path d="M1695 660 c-3 -5 -1 -10 4 -10 6 0 11 5 11 10 0 6 -2 10 -4 10 -3 0
-8 -4 -11 -10z"/>
<path d="M2247 465 c3 -8 9 -12 14 -9 12 7 11 11 -5 17 -10 4 -13 1 -9 -8z"/>
<path d="M1684 3740 c0 -13 4 -16 10 -10 7 7 7 13 0 20 -6 6 -10 3 -10 -10z"/>
<path d="M2265 3730 c3 -5 8 -10 11 -10 2 0 4 5 4 10 0 6 -5 10 -11 10 -5 0
-7 -4 -4 -10z"/>
<path d="M1824 3669 c-3 -6 -2 -15 3 -20 5 -5 9 -1 9 11 0 23 -2 24 -12 9z"/>
<path d="M2510 3590 c-9 -6 -10 -10 -3 -10 6 0 15 5 18 10 8 12 4 12 -15 0z"/>
<path d="M2697 3578 c9 -10 17 -18 17 -18 1 0 2 8 2 18 0 10 -8 18 -18 18 -16
0 -16 -2 -1 -18z"/>
<path d="M1200 3504 c0 -8 5 -12 10 -9 6 4 8 11 5 16 -9 14 -15 11 -15 -7z"/>
<path d="M2750 3516 c0 -2 8 -10 18 -17 15 -13 16 -12 3 4 -13 16 -21 21 -21
13z"/>
<path d="M1145 3480 c-3 -5 -1 -10 4 -10 6 0 11 5 11 10 0 6 -2 10 -4 10 -3 0
-8 -4 -11 -10z"/>
<path d="M2258 3443 c7 -3 16 -2 19 1 4 3 -2 6 -13 5 -11 0 -14 -3 -6 -6z"/>
<path d="M2840 3416 c0 -2 7 -9 15 -16 9 -7 15 -8 15 -2 0 5 -7 12 -15 16 -8
3 -15 4 -15 2z"/>
<path d="M1480 3376 c0 -2 7 -7 16 -10 8 -3 12 -2 9 4 -6 10 -25 14 -25 6z"/>
<path d="M2922 3353 c-6 -2 -10 -9 -6 -14 8 -14 21 -11 21 6 0 8 -1 15 -1 14
-1 0 -7 -3 -14 -6z"/>
<path d="M1404 3309 c-11 -18 14 -35 29 -20 10 10 8 11 -7 5 -16 -6 -18 -4
-13 9 7 19 2 23 -9 6z"/>
<path d="M2679 3083 c-13 -16 -12 -17 4 -4 16 13 21 21 13 21 -2 0 -10 -8 -17
-17z"/>
<path d="M3091 3067 c-13 -21 -12 -21 5 -5 10 10 16 20 13 22 -3 3 -11 -5 -18
-17z"/>
<path d="M885 3070 c3 -5 8 -10 11 -10 2 0 4 5 4 10 0 6 -5 10 -11 10 -5 0 -7
-4 -4 -10z"/>
<path d="M3045 3060 c3 -5 8 -10 11 -10 2 0 4 5 4 10 0 6 -5 10 -11 10 -5 0
-7 -4 -4 -10z"/>
<path d="M2970 2999 c0 -5 5 -7 10 -4 6 3 10 8 10 11 0 2 -4 4 -10 4 -5 0 -10
-5 -10 -11z"/>
<path d="M2895 2930 c-3 -5 -2 -10 4 -10 5 0 13 5 16 10 3 6 2 10 -4 10 -5 0
-13 -4 -16 -10z"/>
<path d="M2515 2910 c3 -5 8 -10 11 -10 2 0 4 5 4 10 0 6 -5 10 -11 10 -5 0
-7 -4 -4 -10z"/>
<path d="M2141 2894 c0 -11 3 -14 6 -6 3 7 2 16 -1 19 -3 4 -6 -2 -5 -13z"/>
<path d="M1138 2848 c10 -13 10 -17 0 -21 -7 -2 -10 -7 -7 -11 3 -4 11 0 18 7
9 11 7 17 -6 28 -16 13 -17 12 -5 -3z"/>
<path d="M1571 2834 c0 -11 3 -14 6 -6 3 7 2 16 -1 19 -3 4 -6 -2 -5 -13z"/>
<path d="M2862 2820 c0 -14 2 -19 5 -12 2 6 2 18 0 25 -3 6 -5 1 -5 -13z"/>
<path d="M2340 2790 c-8 -5 -10 -10 -5 -10 6 0 17 5 25 10 8 5 11 10 5 10 -5
0 -17 -5 -25 -10z"/>
<path d="M1207 2756 c-4 -10 -1 -13 8 -9 8 3 12 9 9 14 -7 12 -11 11 -17 -5z"/>
<path d="M1626 2757 c3 -10 9 -15 12 -12 3 3 0 11 -7 18 -10 9 -11 8 -5 -6z"/>
<path d="M2702 2734 c-7 -8 -8 -14 -3 -14 10 0 25 19 20 25 -2 1 -10 -3 -17
-11z"/>
<path d="M2142 2695 c0 -16 2 -22 5 -12 2 9 2 23 0 30 -3 6 -5 -1 -5 -18z"/>
<path d="M2685 2690 c3 -5 8 -10 11 -10 2 0 4 5 4 10 0 6 -5 10 -11 10 -5 0
-7 -4 -4 -10z"/>
<path d="M1290 2676 c0 -2 8 -10 18 -17 15 -13 16 -12 3 4 -13 16 -21 21 -21
13z"/>
<path d="M2175 2620 c11 -12 13 -20 6 -25 -6 -3 -11 -1 -11 6 0 7 -3 10 -6 6
-3 -3 -3 -11 1 -17 5 -8 13 -6 26 6 21 19 18 29 -12 37 -20 5 -20 5 -4 -13z"/>
<path d="M2620 2625 c0 -8 2 -15 4 -15 2 0 6 7 10 15 3 8 1 15 -4 15 -6 0 -10
-7 -10 -15z"/>
<path d="M2510 2525 c0 -5 5 -17 10 -25 5 -8 10 -10 10 -5 0 6 -5 17 -10 25
-5 8 -10 11 -10 5z"/>
<path d="M2467 2423 c-4 -3 -7 -11 -7 -17 0 -6 5 -5 12 2 6 6 9 14 7 17 -3 3
-9 2 -12 -2z"/>
<path d="M1604 2340 c0 -13 4 -16 10 -10 7 7 7 13 0 20 -6 6 -10 3 -10 -10z"/>
<path d="M1680 2281 c0 -6 4 -13 10 -16 6 -3 7 1 4 9 -7 18 -14 21 -14 7z"/>
<path d="M2200 2186 c0 -8 4 -17 9 -20 5 -4 7 3 4 14 -6 23 -13 26 -13 6z"/>
<path d="M2255 2121 c-3 -5 -1 -12 5 -16 5 -3 10 1 10 9 0 18 -6 21 -15 7z"/>
<path d="M2325 2070 c-3 -5 -1 -10 4 -10 6 0 11 5 11 10 0 6 -2 10 -4 10 -3 0
-8 -4 -11 -10z"/>
<path d="M2455 1940 c3 -5 8 -10 11 -10 2 0 4 5 4 10 0 6 -5 10 -11 10 -5 0
-7 -4 -4 -10z"/>
<path d="M1445 1819 c-4 -6 -5 -12 -2 -15 2 -3 7 2 10 11 7 17 1 20 -8 4z"/>
<path d="M1359 1743 c-13 -17 -13 -17 6 -3 11 8 22 16 24 17 2 2 0 3 -6 3 -6
0 -17 -8 -24 -17z"/>
<path d="M2600 1756 c0 -2 7 -7 16 -10 8 -3 12 -2 9 4 -6 10 -25 14 -25 6z"/>
<path d="M2745 1660 c3 -5 8 -10 11 -10 2 0 4 5 4 10 0 6 -5 10 -11 10 -5 0
-7 -4 -4 -10z"/>
<path d="M1220 1635 c-13 -14 -19 -25 -14 -25 8 1 50 50 41 50 -2 0 -14 -11
-27 -25z"/>
<path d="M2850 1520 c0 -5 5 -10 10 -10 6 0 10 5 10 10 0 6 -4 10 -10 10 -5 0
-10 -4 -10 -10z"/>
<path d="M2970 1400 c0 -5 5 -10 11 -10 5 0 7 5 4 10 -3 6 -8 10 -11 10 -2 0
-4 -4 -4 -10z"/>
<path d="M961 1374 c0 -11 3 -14 6 -6 3 7 2 16 -1 19 -3 4 -6 -2 -5 -13z"/>
<path d="M3024 1361 c20 -22 26 -25 26 -13 0 4 -10 13 -22 21 -23 14 -23 14
-4 -8z"/>
<path d="M900 1291 c0 -6 4 -13 10 -16 6 -3 7 1 4 9 -7 18 -14 21 -14 7z"/>
<path d="M3105 1269 c-4 -6 -5 -12 -2 -15 2 -3 7 2 10 11 7 17 1 20 -8 4z"/>
<path d="M1075 940 c3 -5 8 -10 11 -10 2 0 4 5 4 10 0 6 -5 10 -11 10 -5 0 -7
-4 -4 -10z"/>
<path d="M2860 939 c0 -5 5 -7 10 -4 6 3 10 8 10 11 0 2 -4 4 -10 4 -5 0 -10
-5 -10 -11z"/>
<path d="M1100 889 c0 -5 5 -7 10 -4 6 3 10 8 10 11 0 2 -4 4 -10 4 -5 0 -10
-5 -10 -11z"/>
<path d="M2825 890 c3 -5 11 -10 16 -10 6 0 7 5 4 10 -3 6 -11 10 -16 10 -6 0
-7 -4 -4 -10z"/>
<path d="M1140 838 c16 -19 12 -31 -7 -23 -15 5 -16 4 -5 -6 9 -10 15 -10 24
-1 10 10 8 15 -5 27 -9 8 -12 10 -7 3z"/>
<path d="M2695 770 c3 -5 8 -10 11 -10 2 0 4 5 4 10 0 6 -5 10 -11 10 -5 0 -7
-4 -4 -10z"/>
<path d="M2539 613 c-13 -16 -12 -17 4 -4 16 13 21 21 13 21 -2 0 -10 -8 -17
-17z"/>
<path d="M2250 341 c0 -5 7 -11 14 -14 10 -4 13 -1 9 9 -6 15 -23 19 -23 5z"/>
<path d="M1740 281 c0 -6 4 -13 10 -16 6 -3 7 1 4 9 -7 18 -14 21 -14 7z"/>
<path d="M1720 266 c0 -8 4 -17 9 -20 5 -4 7 3 4 14 -6 23 -13 26 -13 6z"/>
<path d="M1797 179 c7 -7 15 -10 18 -7 3 3 -2 9 -12 12 -14 6 -15 5 -6 -5z"/>
<path d="M1858 103 c6 -2 18 -2 25 0 6 3 1 5 -13 5 -14 0 -19 -2 -12 -5z"/>
</g>
</svg>
